<mxfile host="app.diagrams.net" agent="Mozilla/5.0 (Windows NT 10.0; Win64; x64; rv:135.0) Gecko/20100101 Firefox/135.0" version="26.0.5">
  <diagram name="Pagina-1" id="xXDUhA1cTyPcn6yYdcTW">
    <mxGraphModel dx="1462" dy="331" grid="1" gridSize="10" guides="1" tooltips="1" connect="1" arrows="1" fold="1" page="1" pageScale="1" pageWidth="827" pageHeight="1169" math="0" shadow="0">
      <root>
        <mxCell id="0" />
        <mxCell id="1" parent="0" />
        <mxCell id="b8Xn-FrnnSBAFmYbfaQa-20" style="edgeStyle=orthogonalEdgeStyle;rounded=0;orthogonalLoop=1;jettySize=auto;html=1;exitX=0;exitY=0.5;exitDx=0;exitDy=0;entryX=0.5;entryY=0;entryDx=0;entryDy=0;endArrow=none;endFill=0;" edge="1" parent="1" source="b8Xn-FrnnSBAFmYbfaQa-10" target="b8Xn-FrnnSBAFmYbfaQa-19">
          <mxGeometry relative="1" as="geometry" />
        </mxCell>
        <mxCell id="b8Xn-FrnnSBAFmYbfaQa-26" style="edgeStyle=orthogonalEdgeStyle;rounded=0;orthogonalLoop=1;jettySize=auto;html=1;exitX=0.5;exitY=1;exitDx=0;exitDy=0;entryX=0.5;entryY=0;entryDx=0;entryDy=0;endArrow=none;endFill=0;" edge="1" parent="1" source="b8Xn-FrnnSBAFmYbfaQa-19" target="b8Xn-FrnnSBAFmYbfaQa-21">
          <mxGeometry relative="1" as="geometry" />
        </mxCell>
        <mxCell id="b8Xn-FrnnSBAFmYbfaQa-19" value="definire" style="rhombus;whiteSpace=wrap;html=1;" vertex="1" parent="1">
          <mxGeometry x="30" y="115" width="80" height="80" as="geometry" />
        </mxCell>
        <mxCell id="b8Xn-FrnnSBAFmYbfaQa-105" style="edgeStyle=orthogonalEdgeStyle;rounded=0;orthogonalLoop=1;jettySize=auto;html=1;exitX=0;exitY=0;exitDx=0;exitDy=0;entryX=1;entryY=0.5;entryDx=0;entryDy=0;endArrow=none;endFill=0;" edge="1" parent="1" source="b8Xn-FrnnSBAFmYbfaQa-21" target="b8Xn-FrnnSBAFmYbfaQa-103">
          <mxGeometry relative="1" as="geometry" />
        </mxCell>
        <mxCell id="b8Xn-FrnnSBAFmYbfaQa-21" value="MODELLO" style="whiteSpace=wrap;html=1;align=center;" vertex="1" parent="1">
          <mxGeometry x="20" y="250" width="100" height="40" as="geometry" />
        </mxCell>
        <mxCell id="b8Xn-FrnnSBAFmYbfaQa-33" style="edgeStyle=orthogonalEdgeStyle;rounded=0;orthogonalLoop=1;jettySize=auto;html=1;exitX=0.5;exitY=0;exitDx=0;exitDy=0;entryX=0.5;entryY=1;entryDx=0;entryDy=0;endArrow=none;endFill=0;" edge="1" parent="1" source="b8Xn-FrnnSBAFmYbfaQa-29" target="b8Xn-FrnnSBAFmYbfaQa-21">
          <mxGeometry relative="1" as="geometry" />
        </mxCell>
        <mxCell id="b8Xn-FrnnSBAFmYbfaQa-29" value="" style="ellipse;whiteSpace=wrap;html=1;aspect=fixed;" vertex="1" parent="1">
          <mxGeometry x="65" y="305" width="10" height="10" as="geometry" />
        </mxCell>
        <mxCell id="b8Xn-FrnnSBAFmYbfaQa-22" value="ID" style="text;html=1;align=center;verticalAlign=middle;resizable=0;points=[];autosize=1;strokeColor=none;fillColor=none;container=0;" vertex="1" parent="1">
          <mxGeometry x="130.00333333333333" y="295" width="40" height="30" as="geometry" />
        </mxCell>
        <mxCell id="b8Xn-FrnnSBAFmYbfaQa-23" value="" style="shape=waypoint;sketch=0;size=6;pointerEvents=1;points=[];fillColor=none;resizable=1;rotatable=1;perimeter=centerPerimeter;snapToPoint=1;perimeterSpacing=0;strokeWidth=3;movable=1;deletable=1;editable=1;locked=0;connectable=1;container=0;" vertex="1" parent="1">
          <mxGeometry x="119.99999999999999" y="300" width="20" height="20" as="geometry" />
        </mxCell>
        <mxCell id="b8Xn-FrnnSBAFmYbfaQa-24" value="" style="endArrow=none;html=1;rounded=0;entryX=0.378;entryY=0.683;entryDx=0;entryDy=0;entryPerimeter=0;movable=1;resizable=1;rotatable=1;deletable=1;editable=1;locked=0;connectable=1;exitX=0.75;exitY=1;exitDx=0;exitDy=0;" edge="1" parent="1" target="b8Xn-FrnnSBAFmYbfaQa-23" source="b8Xn-FrnnSBAFmYbfaQa-21">
          <mxGeometry width="50" height="50" relative="1" as="geometry">
            <mxPoint x="115.55555555555556" y="300" as="sourcePoint" />
            <mxPoint x="208.88888888888886" y="345" as="targetPoint" />
          </mxGeometry>
        </mxCell>
        <mxCell id="b8Xn-FrnnSBAFmYbfaQa-32" value="tipo" style="text;html=1;align=center;verticalAlign=middle;resizable=0;points=[];autosize=1;strokeColor=none;fillColor=none;container=0;" vertex="1" parent="1">
          <mxGeometry x="20.00333333333333" y="295" width="40" height="30" as="geometry" />
        </mxCell>
        <mxCell id="b8Xn-FrnnSBAFmYbfaQa-67" style="edgeStyle=orthogonalEdgeStyle;rounded=0;orthogonalLoop=1;jettySize=auto;html=1;exitX=1;exitY=1;exitDx=0;exitDy=0;entryX=0.5;entryY=0;entryDx=0;entryDy=0;endArrow=none;endFill=0;" edge="1" parent="1" source="b8Xn-FrnnSBAFmYbfaQa-41" target="b8Xn-FrnnSBAFmYbfaQa-63">
          <mxGeometry relative="1" as="geometry" />
        </mxCell>
        <mxCell id="b8Xn-FrnnSBAFmYbfaQa-68" style="edgeStyle=orthogonalEdgeStyle;rounded=0;orthogonalLoop=1;jettySize=auto;html=1;exitX=1;exitY=0;exitDx=0;exitDy=0;entryX=1;entryY=1;entryDx=0;entryDy=0;endArrow=none;endFill=0;" edge="1" parent="1" source="b8Xn-FrnnSBAFmYbfaQa-41" target="b8Xn-FrnnSBAFmYbfaQa-59">
          <mxGeometry relative="1" as="geometry" />
        </mxCell>
        <mxCell id="b8Xn-FrnnSBAFmYbfaQa-41" value="CATALOGO" style="whiteSpace=wrap;html=1;align=center;" vertex="1" parent="1">
          <mxGeometry x="721" y="190" width="100" height="40" as="geometry" />
        </mxCell>
        <mxCell id="b8Xn-FrnnSBAFmYbfaQa-49" style="edgeStyle=orthogonalEdgeStyle;rounded=0;orthogonalLoop=1;jettySize=auto;html=1;exitX=1;exitY=0.5;exitDx=0;exitDy=0;entryX=0;entryY=0.5;entryDx=0;entryDy=0;endArrow=none;endFill=0;" edge="1" parent="1" source="b8Xn-FrnnSBAFmYbfaQa-47" target="b8Xn-FrnnSBAFmYbfaQa-41">
          <mxGeometry relative="1" as="geometry" />
        </mxCell>
        <mxCell id="b8Xn-FrnnSBAFmYbfaQa-51" style="edgeStyle=orthogonalEdgeStyle;rounded=0;orthogonalLoop=1;jettySize=auto;html=1;exitX=0;exitY=0.5;exitDx=0;exitDy=0;entryX=1;entryY=0.5;entryDx=0;entryDy=0;endArrow=none;endFill=0;" edge="1" parent="1" source="b8Xn-FrnnSBAFmYbfaQa-47" target="b8Xn-FrnnSBAFmYbfaQa-18">
          <mxGeometry relative="1" as="geometry" />
        </mxCell>
        <mxCell id="b8Xn-FrnnSBAFmYbfaQa-47" value="formare" style="rhombus;whiteSpace=wrap;html=1;" vertex="1" parent="1">
          <mxGeometry x="581" y="170" width="80" height="80" as="geometry" />
        </mxCell>
        <mxCell id="b8Xn-FrnnSBAFmYbfaQa-1" value="ACCESSORIO" style="whiteSpace=wrap;html=1;align=center;" vertex="1" parent="1">
          <mxGeometry x="470" y="70" width="100" height="40" as="geometry" />
        </mxCell>
        <mxCell id="b8Xn-FrnnSBAFmYbfaQa-189" style="edgeStyle=orthogonalEdgeStyle;rounded=0;orthogonalLoop=1;jettySize=auto;html=1;exitX=0.75;exitY=0;exitDx=0;exitDy=0;entryX=0.5;entryY=1;entryDx=0;entryDy=0;endArrow=none;endFill=0;" edge="1" parent="1" source="b8Xn-FrnnSBAFmYbfaQa-10" target="b8Xn-FrnnSBAFmYbfaQa-187">
          <mxGeometry relative="1" as="geometry" />
        </mxCell>
        <mxCell id="b8Xn-FrnnSBAFmYbfaQa-10" value="BORSA" style="whiteSpace=wrap;html=1;align=center;" vertex="1" parent="1">
          <mxGeometry x="340" y="70" width="100" height="40" as="geometry" />
        </mxCell>
        <mxCell id="b8Xn-FrnnSBAFmYbfaQa-14" value="" style="shape=singleArrow;whiteSpace=wrap;html=1;arrowWidth=0.4;arrowSize=0.4;rotation=90;fillColor=#000000;" vertex="1" parent="1">
          <mxGeometry x="430" y="140" width="50" height="40" as="geometry" />
        </mxCell>
        <mxCell id="b8Xn-FrnnSBAFmYbfaQa-16" style="edgeStyle=orthogonalEdgeStyle;rounded=0;orthogonalLoop=1;jettySize=auto;html=1;exitX=0.5;exitY=1;exitDx=0;exitDy=0;entryX=0;entryY=0;entryDx=0;entryDy=28;entryPerimeter=0;endArrow=none;endFill=0;" edge="1" parent="1" source="b8Xn-FrnnSBAFmYbfaQa-10" target="b8Xn-FrnnSBAFmYbfaQa-14">
          <mxGeometry relative="1" as="geometry" />
        </mxCell>
        <mxCell id="b8Xn-FrnnSBAFmYbfaQa-17" style="edgeStyle=orthogonalEdgeStyle;rounded=0;orthogonalLoop=1;jettySize=auto;html=1;exitX=0.5;exitY=1;exitDx=0;exitDy=0;entryX=0;entryY=0;entryDx=0;entryDy=12;entryPerimeter=0;endArrow=none;endFill=0;" edge="1" parent="1" source="b8Xn-FrnnSBAFmYbfaQa-1" target="b8Xn-FrnnSBAFmYbfaQa-14">
          <mxGeometry relative="1" as="geometry">
            <mxPoint x="400" y="120" as="sourcePoint" />
            <mxPoint x="457" y="145" as="targetPoint" />
          </mxGeometry>
        </mxCell>
        <mxCell id="b8Xn-FrnnSBAFmYbfaQa-38" style="edgeStyle=orthogonalEdgeStyle;rounded=0;orthogonalLoop=1;jettySize=auto;html=1;exitX=0.25;exitY=1;exitDx=0;exitDy=0;entryX=1;entryY=0;entryDx=0;entryDy=0;endArrow=none;endFill=0;" edge="1" parent="1" source="b8Xn-FrnnSBAFmYbfaQa-18" target="b8Xn-FrnnSBAFmYbfaQa-34">
          <mxGeometry relative="1" as="geometry" />
        </mxCell>
        <mxCell id="b8Xn-FrnnSBAFmYbfaQa-83" style="edgeStyle=orthogonalEdgeStyle;rounded=0;orthogonalLoop=1;jettySize=auto;html=1;exitX=0.25;exitY=0;exitDx=0;exitDy=0;entryX=1;entryY=1;entryDx=0;entryDy=0;endArrow=none;endFill=0;" edge="1" parent="1" source="b8Xn-FrnnSBAFmYbfaQa-18" target="b8Xn-FrnnSBAFmYbfaQa-81">
          <mxGeometry relative="1" as="geometry" />
        </mxCell>
        <mxCell id="b8Xn-FrnnSBAFmYbfaQa-88" style="edgeStyle=orthogonalEdgeStyle;rounded=0;orthogonalLoop=1;jettySize=auto;html=1;exitX=1;exitY=0;exitDx=0;exitDy=0;entryX=0.5;entryY=1;entryDx=0;entryDy=0;endArrow=none;endFill=0;" edge="1" parent="1" source="b8Xn-FrnnSBAFmYbfaQa-18" target="b8Xn-FrnnSBAFmYbfaQa-84">
          <mxGeometry relative="1" as="geometry" />
        </mxCell>
        <mxCell id="b8Xn-FrnnSBAFmYbfaQa-107" style="edgeStyle=orthogonalEdgeStyle;rounded=0;orthogonalLoop=1;jettySize=auto;html=1;exitX=0.351;exitY=1.014;exitDx=0;exitDy=0;entryX=0.5;entryY=0;entryDx=0;entryDy=0;endArrow=none;endFill=0;exitPerimeter=0;" edge="1" parent="1" source="b8Xn-FrnnSBAFmYbfaQa-18" target="b8Xn-FrnnSBAFmYbfaQa-106">
          <mxGeometry relative="1" as="geometry" />
        </mxCell>
        <mxCell id="b8Xn-FrnnSBAFmYbfaQa-182" style="edgeStyle=orthogonalEdgeStyle;rounded=0;orthogonalLoop=1;jettySize=auto;html=1;exitX=0.75;exitY=1;exitDx=0;exitDy=0;entryX=0;entryY=0;entryDx=0;entryDy=0;endArrow=none;endFill=0;" edge="1" parent="1" source="b8Xn-FrnnSBAFmYbfaQa-18" target="b8Xn-FrnnSBAFmYbfaQa-181">
          <mxGeometry relative="1" as="geometry" />
        </mxCell>
        <mxCell id="b8Xn-FrnnSBAFmYbfaQa-18" value="ARTICOLO" style="whiteSpace=wrap;html=1;align=center;" vertex="1" parent="1">
          <mxGeometry x="405" y="190" width="100" height="40" as="geometry" />
        </mxCell>
        <mxCell id="b8Xn-FrnnSBAFmYbfaQa-34" value="" style="ellipse;whiteSpace=wrap;html=1;aspect=fixed;" vertex="1" parent="1">
          <mxGeometry x="412" y="245" width="10" height="10" as="geometry" />
        </mxCell>
        <mxCell id="b8Xn-FrnnSBAFmYbfaQa-35" value="ID" style="text;html=1;align=center;verticalAlign=middle;resizable=0;points=[];autosize=1;strokeColor=none;fillColor=none;container=0;" vertex="1" parent="1">
          <mxGeometry x="505.00333333333333" y="235" width="40" height="30" as="geometry" />
        </mxCell>
        <mxCell id="b8Xn-FrnnSBAFmYbfaQa-36" value="" style="shape=waypoint;sketch=0;size=6;pointerEvents=1;points=[];fillColor=none;resizable=1;rotatable=1;perimeter=centerPerimeter;snapToPoint=1;perimeterSpacing=0;strokeWidth=3;movable=1;deletable=1;editable=1;locked=0;connectable=1;container=0;" vertex="1" parent="1">
          <mxGeometry x="495" y="240" width="20" height="20" as="geometry" />
        </mxCell>
        <mxCell id="b8Xn-FrnnSBAFmYbfaQa-37" style="edgeStyle=orthogonalEdgeStyle;rounded=0;orthogonalLoop=1;jettySize=auto;html=1;exitX=0.75;exitY=1;exitDx=0;exitDy=0;entryX=0.17;entryY=0.8;entryDx=0;entryDy=0;entryPerimeter=0;endArrow=none;endFill=0;" edge="1" parent="1" source="b8Xn-FrnnSBAFmYbfaQa-18" target="b8Xn-FrnnSBAFmYbfaQa-36">
          <mxGeometry relative="1" as="geometry" />
        </mxCell>
        <mxCell id="b8Xn-FrnnSBAFmYbfaQa-39" value="dimensione" style="text;html=1;align=center;verticalAlign=middle;resizable=0;points=[];autosize=1;strokeColor=none;fillColor=none;container=0;" vertex="1" parent="1">
          <mxGeometry x="360.00333333333333" y="243" width="80" height="30" as="geometry" />
        </mxCell>
        <mxCell id="b8Xn-FrnnSBAFmYbfaQa-52" value="ID" style="text;html=1;align=center;verticalAlign=middle;resizable=0;points=[];autosize=1;strokeColor=none;fillColor=none;container=0;" vertex="1" parent="1">
          <mxGeometry x="851.0033333333333" y="195" width="40" height="30" as="geometry" />
        </mxCell>
        <mxCell id="b8Xn-FrnnSBAFmYbfaQa-53" value="" style="shape=waypoint;sketch=0;size=6;pointerEvents=1;points=[];fillColor=none;resizable=1;rotatable=1;perimeter=centerPerimeter;snapToPoint=1;perimeterSpacing=0;strokeWidth=3;movable=1;deletable=1;editable=1;locked=0;connectable=1;container=0;" vertex="1" parent="1">
          <mxGeometry x="841" y="200" width="20" height="20" as="geometry" />
        </mxCell>
        <mxCell id="b8Xn-FrnnSBAFmYbfaQa-54" style="edgeStyle=orthogonalEdgeStyle;rounded=0;orthogonalLoop=1;jettySize=auto;html=1;exitX=1;exitY=0.5;exitDx=0;exitDy=0;entryX=0.24;entryY=0.48;entryDx=0;entryDy=0;entryPerimeter=0;endArrow=none;endFill=0;" edge="1" parent="1" source="b8Xn-FrnnSBAFmYbfaQa-41" target="b8Xn-FrnnSBAFmYbfaQa-53">
          <mxGeometry relative="1" as="geometry" />
        </mxCell>
        <mxCell id="b8Xn-FrnnSBAFmYbfaQa-58" value="stagione" style="text;html=1;align=center;verticalAlign=middle;resizable=0;points=[];autosize=1;strokeColor=none;fillColor=none;container=0;" vertex="1" parent="1">
          <mxGeometry x="747.0033333333333" y="147" width="70" height="30" as="geometry" />
        </mxCell>
        <mxCell id="b8Xn-FrnnSBAFmYbfaQa-59" value="" style="ellipse;whiteSpace=wrap;html=1;aspect=fixed;" vertex="1" parent="1">
          <mxGeometry x="811" y="160" width="10" height="10" as="geometry" />
        </mxCell>
        <mxCell id="b8Xn-FrnnSBAFmYbfaQa-62" value="nome" style="text;html=1;align=center;verticalAlign=middle;resizable=0;points=[];autosize=1;strokeColor=none;fillColor=none;container=0;" vertex="1" parent="1">
          <mxGeometry x="768.0033333333333" y="240" width="50" height="30" as="geometry" />
        </mxCell>
        <mxCell id="b8Xn-FrnnSBAFmYbfaQa-63" value="" style="ellipse;whiteSpace=wrap;html=1;aspect=fixed;" vertex="1" parent="1">
          <mxGeometry x="817" y="253" width="10" height="10" as="geometry" />
        </mxCell>
        <mxCell id="b8Xn-FrnnSBAFmYbfaQa-80" style="edgeStyle=orthogonalEdgeStyle;rounded=0;orthogonalLoop=1;jettySize=auto;html=1;exitX=1;exitY=0;exitDx=0;exitDy=0;entryX=0.5;entryY=1;entryDx=0;entryDy=0;endArrow=none;endFill=0;" edge="1" parent="1" source="b8Xn-FrnnSBAFmYbfaQa-69" target="b8Xn-FrnnSBAFmYbfaQa-77">
          <mxGeometry relative="1" as="geometry" />
        </mxCell>
        <mxCell id="b8Xn-FrnnSBAFmYbfaQa-69" value="TESSUTO" style="whiteSpace=wrap;html=1;align=center;" vertex="1" parent="1">
          <mxGeometry x="145" y="190" width="100" height="40" as="geometry" />
        </mxCell>
        <mxCell id="b8Xn-FrnnSBAFmYbfaQa-70" style="edgeStyle=orthogonalEdgeStyle;rounded=0;orthogonalLoop=1;jettySize=auto;html=1;exitX=0.5;exitY=0;exitDx=0;exitDy=0;entryX=0.5;entryY=1;entryDx=0;entryDy=0;endArrow=none;endFill=0;" edge="1" parent="1" source="b8Xn-FrnnSBAFmYbfaQa-71" target="b8Xn-FrnnSBAFmYbfaQa-69">
          <mxGeometry relative="1" as="geometry" />
        </mxCell>
        <mxCell id="b8Xn-FrnnSBAFmYbfaQa-71" value="" style="ellipse;whiteSpace=wrap;html=1;aspect=fixed;" vertex="1" parent="1">
          <mxGeometry x="190" y="245" width="10" height="10" as="geometry" />
        </mxCell>
        <mxCell id="b8Xn-FrnnSBAFmYbfaQa-72" value="codice" style="text;html=1;align=center;verticalAlign=middle;resizable=0;points=[];autosize=1;strokeColor=none;fillColor=none;container=0;" vertex="1" parent="1">
          <mxGeometry x="243.00333333333333" y="224" width="60" height="30" as="geometry" />
        </mxCell>
        <mxCell id="b8Xn-FrnnSBAFmYbfaQa-73" value="" style="shape=waypoint;sketch=0;size=6;pointerEvents=1;points=[];fillColor=none;resizable=1;rotatable=1;perimeter=centerPerimeter;snapToPoint=1;perimeterSpacing=0;strokeWidth=3;movable=1;deletable=1;editable=1;locked=0;connectable=1;container=0;" vertex="1" parent="1">
          <mxGeometry x="245" y="240" width="20" height="20" as="geometry" />
        </mxCell>
        <mxCell id="b8Xn-FrnnSBAFmYbfaQa-74" value="" style="endArrow=none;html=1;rounded=0;entryX=0.378;entryY=0.683;entryDx=0;entryDy=0;entryPerimeter=0;movable=1;resizable=1;rotatable=1;deletable=1;editable=1;locked=0;connectable=1;exitX=0.75;exitY=1;exitDx=0;exitDy=0;" edge="1" parent="1" source="b8Xn-FrnnSBAFmYbfaQa-69" target="b8Xn-FrnnSBAFmYbfaQa-73">
          <mxGeometry width="50" height="50" relative="1" as="geometry">
            <mxPoint x="240.55555555555554" y="240" as="sourcePoint" />
            <mxPoint x="333.88888888888886" y="285" as="targetPoint" />
          </mxGeometry>
        </mxCell>
        <mxCell id="b8Xn-FrnnSBAFmYbfaQa-75" value="materiale" style="text;html=1;align=center;verticalAlign=middle;resizable=0;points=[];autosize=1;strokeColor=none;fillColor=none;container=0;" vertex="1" parent="1">
          <mxGeometry x="125.00333333333333" y="233" width="70" height="30" as="geometry" />
        </mxCell>
        <mxCell id="b8Xn-FrnnSBAFmYbfaQa-77" value="" style="ellipse;whiteSpace=wrap;html=1;aspect=fixed;" vertex="1" parent="1">
          <mxGeometry x="235" y="160" width="10" height="10" as="geometry" />
        </mxCell>
        <mxCell id="b8Xn-FrnnSBAFmYbfaQa-78" value="colore" style="text;html=1;align=center;verticalAlign=middle;resizable=0;points=[];autosize=1;strokeColor=none;fillColor=none;container=0;" vertex="1" parent="1">
          <mxGeometry x="183.00333333333333" y="147" width="60" height="30" as="geometry" />
        </mxCell>
        <mxCell id="b8Xn-FrnnSBAFmYbfaQa-81" value="" style="ellipse;whiteSpace=wrap;html=1;aspect=fixed;" vertex="1" parent="1">
          <mxGeometry x="418" y="160" width="10" height="10" as="geometry" />
        </mxCell>
        <mxCell id="b8Xn-FrnnSBAFmYbfaQa-82" value="descrizione" style="text;html=1;align=center;verticalAlign=middle;resizable=0;points=[];autosize=1;strokeColor=none;fillColor=none;container=0;" vertex="1" parent="1">
          <mxGeometry x="338.00333333333333" y="150" width="80" height="30" as="geometry" />
        </mxCell>
        <mxCell id="b8Xn-FrnnSBAFmYbfaQa-84" value="" style="ellipse;whiteSpace=wrap;html=1;aspect=fixed;" vertex="1" parent="1">
          <mxGeometry x="485" y="160" width="10" height="10" as="geometry" />
        </mxCell>
        <mxCell id="b8Xn-FrnnSBAFmYbfaQa-85" value="foto" style="text;html=1;align=center;verticalAlign=middle;resizable=0;points=[];autosize=1;strokeColor=none;fillColor=none;container=0;" vertex="1" parent="1">
          <mxGeometry x="488.00333333333333" y="146" width="40" height="30" as="geometry" />
        </mxCell>
        <mxCell id="b8Xn-FrnnSBAFmYbfaQa-91" style="edgeStyle=orthogonalEdgeStyle;rounded=0;orthogonalLoop=1;jettySize=auto;html=1;exitX=0;exitY=0.5;exitDx=0;exitDy=0;entryX=1;entryY=0.5;entryDx=0;entryDy=0;endArrow=none;endFill=0;" edge="1" parent="1" source="b8Xn-FrnnSBAFmYbfaQa-89" target="b8Xn-FrnnSBAFmYbfaQa-69">
          <mxGeometry relative="1" as="geometry" />
        </mxCell>
        <mxCell id="b8Xn-FrnnSBAFmYbfaQa-92" style="edgeStyle=orthogonalEdgeStyle;rounded=0;orthogonalLoop=1;jettySize=auto;html=1;exitX=1;exitY=0.5;exitDx=0;exitDy=0;entryX=0;entryY=0.5;entryDx=0;entryDy=0;endArrow=none;endFill=0;" edge="1" parent="1" source="b8Xn-FrnnSBAFmYbfaQa-89" target="b8Xn-FrnnSBAFmYbfaQa-18">
          <mxGeometry relative="1" as="geometry" />
        </mxCell>
        <mxCell id="b8Xn-FrnnSBAFmYbfaQa-89" value="comporre" style="rhombus;whiteSpace=wrap;html=1;" vertex="1" parent="1">
          <mxGeometry x="280" y="170" width="80" height="80" as="geometry" />
        </mxCell>
        <mxCell id="b8Xn-FrnnSBAFmYbfaQa-94" value="&lt;font style=&quot;font-size: 8px;&quot;&gt;(1,N)&lt;/font&gt;" style="text;html=1;align=center;verticalAlign=middle;resizable=0;points=[];autosize=1;strokeColor=none;fillColor=none;" vertex="1" parent="1">
          <mxGeometry x="263" y="177" width="40" height="30" as="geometry" />
        </mxCell>
        <mxCell id="b8Xn-FrnnSBAFmYbfaQa-95" value="&lt;font style=&quot;font-size: 8px;&quot;&gt;(1,1)&lt;/font&gt;" style="text;html=1;align=center;verticalAlign=middle;resizable=0;points=[];autosize=1;strokeColor=none;fillColor=none;" vertex="1" parent="1">
          <mxGeometry x="340" y="177" width="40" height="30" as="geometry" />
        </mxCell>
        <mxCell id="b8Xn-FrnnSBAFmYbfaQa-96" value="&lt;font style=&quot;font-size: 8px;&quot;&gt;(1,1)&lt;/font&gt;" style="text;html=1;align=center;verticalAlign=middle;resizable=0;points=[];autosize=1;strokeColor=none;fillColor=none;" vertex="1" parent="1">
          <mxGeometry x="545" y="180" width="40" height="30" as="geometry" />
        </mxCell>
        <mxCell id="b8Xn-FrnnSBAFmYbfaQa-97" value="&lt;font style=&quot;font-size: 8px;&quot;&gt;(1,N)&lt;/font&gt;" style="text;html=1;align=center;verticalAlign=middle;resizable=0;points=[];autosize=1;strokeColor=none;fillColor=none;" vertex="1" parent="1">
          <mxGeometry x="650" y="180" width="40" height="30" as="geometry" />
        </mxCell>
        <mxCell id="b8Xn-FrnnSBAFmYbfaQa-98" value="&lt;font style=&quot;font-size: 8px;&quot;&gt;(1,N)&lt;/font&gt;" style="text;html=1;align=center;verticalAlign=middle;resizable=0;points=[];autosize=1;strokeColor=none;fillColor=none;" vertex="1" parent="1">
          <mxGeometry x="65" y="180" width="40" height="30" as="geometry" />
        </mxCell>
        <mxCell id="b8Xn-FrnnSBAFmYbfaQa-99" value="&lt;font style=&quot;font-size: 8px;&quot;&gt;(1,1)&lt;/font&gt;" style="text;html=1;align=center;verticalAlign=middle;resizable=0;points=[];autosize=1;strokeColor=none;fillColor=none;" vertex="1" parent="1">
          <mxGeometry x="65" y="100" width="40" height="30" as="geometry" />
        </mxCell>
        <mxCell id="b8Xn-FrnnSBAFmYbfaQa-103" value="" style="ellipse;whiteSpace=wrap;html=1;aspect=fixed;" vertex="1" parent="1">
          <mxGeometry x="-10" y="245" width="10" height="10" as="geometry" />
        </mxCell>
        <mxCell id="b8Xn-FrnnSBAFmYbfaQa-104" value="chiusura" style="text;html=1;align=center;verticalAlign=middle;resizable=0;points=[];autosize=1;strokeColor=none;fillColor=none;container=0;" vertex="1" parent="1">
          <mxGeometry x="-69.99666666666667" y="235" width="70" height="30" as="geometry" />
        </mxCell>
        <mxCell id="b8Xn-FrnnSBAFmYbfaQa-152" style="edgeStyle=orthogonalEdgeStyle;rounded=0;orthogonalLoop=1;jettySize=auto;html=1;exitX=0.5;exitY=1;exitDx=0;exitDy=0;entryX=0.5;entryY=0;entryDx=0;entryDy=0;endArrow=none;endFill=0;" edge="1" parent="1" source="b8Xn-FrnnSBAFmYbfaQa-106" target="b8Xn-FrnnSBAFmYbfaQa-108">
          <mxGeometry relative="1" as="geometry" />
        </mxCell>
        <mxCell id="b8Xn-FrnnSBAFmYbfaQa-106" value="scegliere" style="rhombus;whiteSpace=wrap;html=1;" vertex="1" parent="1">
          <mxGeometry x="400.5" y="315" width="80" height="80" as="geometry" />
        </mxCell>
        <mxCell id="b8Xn-FrnnSBAFmYbfaQa-160" style="edgeStyle=orthogonalEdgeStyle;rounded=0;orthogonalLoop=1;jettySize=auto;html=1;exitX=0;exitY=1;exitDx=0;exitDy=0;entryX=1;entryY=1;entryDx=0;entryDy=0;endArrow=none;endFill=0;" edge="1" parent="1" source="b8Xn-FrnnSBAFmYbfaQa-108" target="b8Xn-FrnnSBAFmYbfaQa-153">
          <mxGeometry relative="1" as="geometry" />
        </mxCell>
        <mxCell id="b8Xn-FrnnSBAFmYbfaQa-108" value="ORDINE" style="whiteSpace=wrap;html=1;align=center;" vertex="1" parent="1">
          <mxGeometry x="390.5" y="460" width="100" height="40" as="geometry" />
        </mxCell>
        <mxCell id="b8Xn-FrnnSBAFmYbfaQa-116" style="edgeStyle=orthogonalEdgeStyle;rounded=0;orthogonalLoop=1;jettySize=auto;html=1;exitX=0.25;exitY=1;exitDx=0;exitDy=0;entryX=0.5;entryY=0;entryDx=0;entryDy=0;endArrow=none;endFill=0;" edge="1" parent="1" source="b8Xn-FrnnSBAFmYbfaQa-109" target="b8Xn-FrnnSBAFmYbfaQa-114">
          <mxGeometry relative="1" as="geometry" />
        </mxCell>
        <mxCell id="b8Xn-FrnnSBAFmYbfaQa-119" style="edgeStyle=orthogonalEdgeStyle;rounded=0;orthogonalLoop=1;jettySize=auto;html=1;exitX=1;exitY=0;exitDx=0;exitDy=0;entryX=0.5;entryY=1;entryDx=0;entryDy=0;endArrow=none;endFill=0;" edge="1" parent="1" source="b8Xn-FrnnSBAFmYbfaQa-109" target="b8Xn-FrnnSBAFmYbfaQa-110">
          <mxGeometry relative="1" as="geometry" />
        </mxCell>
        <mxCell id="b8Xn-FrnnSBAFmYbfaQa-174" style="edgeStyle=orthogonalEdgeStyle;rounded=0;orthogonalLoop=1;jettySize=auto;html=1;exitX=1;exitY=1;exitDx=0;exitDy=0;entryX=0;entryY=0.5;entryDx=0;entryDy=0;endArrow=none;endFill=0;" edge="1" parent="1" source="b8Xn-FrnnSBAFmYbfaQa-109" target="b8Xn-FrnnSBAFmYbfaQa-171">
          <mxGeometry relative="1" as="geometry" />
        </mxCell>
        <mxCell id="b8Xn-FrnnSBAFmYbfaQa-109" value="CLIENTE" style="whiteSpace=wrap;html=1;align=center;" vertex="1" parent="1">
          <mxGeometry x="725.5" y="460" width="100" height="40" as="geometry" />
        </mxCell>
        <mxCell id="b8Xn-FrnnSBAFmYbfaQa-110" value="" style="ellipse;whiteSpace=wrap;html=1;aspect=fixed;" vertex="1" parent="1">
          <mxGeometry x="822.5" y="433" width="10" height="10" as="geometry" />
        </mxCell>
        <mxCell id="b8Xn-FrnnSBAFmYbfaQa-111" value="nome" style="text;html=1;align=center;verticalAlign=middle;resizable=0;points=[];autosize=1;strokeColor=none;fillColor=none;container=0;" vertex="1" parent="1">
          <mxGeometry x="825.5033333333333" y="423" width="50" height="30" as="geometry" />
        </mxCell>
        <mxCell id="b8Xn-FrnnSBAFmYbfaQa-112" value="" style="ellipse;whiteSpace=wrap;html=1;aspect=fixed;" vertex="1" parent="1">
          <mxGeometry x="749" y="433" width="10" height="10" as="geometry" />
        </mxCell>
        <mxCell id="b8Xn-FrnnSBAFmYbfaQa-113" value="cognome" style="text;html=1;align=center;verticalAlign=middle;resizable=0;points=[];autosize=1;strokeColor=none;fillColor=none;container=0;" vertex="1" parent="1">
          <mxGeometry x="719.0033333333333" y="403" width="70" height="30" as="geometry" />
        </mxCell>
        <mxCell id="b8Xn-FrnnSBAFmYbfaQa-114" value="" style="ellipse;whiteSpace=wrap;html=1;aspect=fixed;" vertex="1" parent="1">
          <mxGeometry x="719" y="521" width="10" height="10" as="geometry" />
        </mxCell>
        <mxCell id="b8Xn-FrnnSBAFmYbfaQa-115" value="&lt;div&gt;pagamento&lt;/div&gt;&lt;div&gt;(1,2)&lt;/div&gt;" style="text;html=1;align=center;verticalAlign=middle;resizable=0;points=[];autosize=1;strokeColor=none;fillColor=none;container=0;" vertex="1" parent="1">
          <mxGeometry x="646.5033333333333" y="511" width="80" height="40" as="geometry" />
        </mxCell>
        <mxCell id="b8Xn-FrnnSBAFmYbfaQa-118" style="edgeStyle=orthogonalEdgeStyle;rounded=0;orthogonalLoop=1;jettySize=auto;html=1;exitX=0.5;exitY=1;exitDx=0;exitDy=0;entryX=0.25;entryY=0;entryDx=0;entryDy=0;endArrow=none;endFill=0;" edge="1" parent="1" source="b8Xn-FrnnSBAFmYbfaQa-112" target="b8Xn-FrnnSBAFmYbfaQa-109">
          <mxGeometry relative="1" as="geometry" />
        </mxCell>
        <mxCell id="b8Xn-FrnnSBAFmYbfaQa-121" value="" style="shape=waypoint;sketch=0;size=6;pointerEvents=1;points=[];fillColor=none;resizable=1;rotatable=1;perimeter=centerPerimeter;snapToPoint=1;perimeterSpacing=0;strokeWidth=3;movable=1;deletable=1;editable=1;locked=0;connectable=1;container=0;" vertex="1" parent="1">
          <mxGeometry x="840.5" y="471" width="20" height="20" as="geometry" />
        </mxCell>
        <mxCell id="b8Xn-FrnnSBAFmYbfaQa-122" value="username" style="text;html=1;align=center;verticalAlign=middle;resizable=0;points=[];autosize=1;strokeColor=none;fillColor=none;container=0;" vertex="1" parent="1">
          <mxGeometry x="845.5033333333333" y="464" width="80" height="30" as="geometry" />
        </mxCell>
        <mxCell id="b8Xn-FrnnSBAFmYbfaQa-123" style="edgeStyle=orthogonalEdgeStyle;rounded=0;orthogonalLoop=1;jettySize=auto;html=1;exitX=1;exitY=0.5;exitDx=0;exitDy=0;entryX=0.319;entryY=0.498;entryDx=0;entryDy=0;entryPerimeter=0;endArrow=none;endFill=0;" edge="1" parent="1" source="b8Xn-FrnnSBAFmYbfaQa-109" target="b8Xn-FrnnSBAFmYbfaQa-121">
          <mxGeometry relative="1" as="geometry" />
        </mxCell>
        <mxCell id="b8Xn-FrnnSBAFmYbfaQa-124" value="" style="ellipse;whiteSpace=wrap;html=1;aspect=fixed;" vertex="1" parent="1">
          <mxGeometry x="694.5" y="561" width="10" height="10" as="geometry" />
        </mxCell>
        <mxCell id="b8Xn-FrnnSBAFmYbfaQa-125" value="" style="ellipse;whiteSpace=wrap;html=1;aspect=fixed;" vertex="1" parent="1">
          <mxGeometry x="729" y="561" width="10" height="10" as="geometry" />
        </mxCell>
        <mxCell id="b8Xn-FrnnSBAFmYbfaQa-126" value="dataScadenza" style="text;html=1;align=center;verticalAlign=middle;resizable=0;points=[];autosize=1;strokeColor=none;fillColor=none;container=0;" vertex="1" parent="1">
          <mxGeometry x="722.5033333333333" y="566" width="100" height="30" as="geometry" />
        </mxCell>
        <mxCell id="b8Xn-FrnnSBAFmYbfaQa-127" value="numeroCarta" style="text;html=1;align=center;verticalAlign=middle;resizable=0;points=[];autosize=1;strokeColor=none;fillColor=none;container=0;" vertex="1" parent="1">
          <mxGeometry x="625.5033333333333" y="566" width="90" height="30" as="geometry" />
        </mxCell>
        <mxCell id="b8Xn-FrnnSBAFmYbfaQa-131" value="" style="endArrow=none;html=1;rounded=0;exitX=0.5;exitY=0;exitDx=0;exitDy=0;entryX=0;entryY=1;entryDx=0;entryDy=0;" edge="1" parent="1" source="b8Xn-FrnnSBAFmYbfaQa-124" target="b8Xn-FrnnSBAFmYbfaQa-114">
          <mxGeometry width="50" height="50" relative="1" as="geometry">
            <mxPoint x="714.5" y="431" as="sourcePoint" />
            <mxPoint x="764.5" y="381" as="targetPoint" />
          </mxGeometry>
        </mxCell>
        <mxCell id="b8Xn-FrnnSBAFmYbfaQa-132" value="" style="endArrow=none;html=1;rounded=0;exitX=0.5;exitY=0;exitDx=0;exitDy=0;entryX=0.5;entryY=1;entryDx=0;entryDy=0;" edge="1" parent="1" source="b8Xn-FrnnSBAFmYbfaQa-125" target="b8Xn-FrnnSBAFmYbfaQa-114">
          <mxGeometry width="50" height="50" relative="1" as="geometry">
            <mxPoint x="709.5" y="571" as="sourcePoint" />
            <mxPoint x="730.5" y="540" as="targetPoint" />
          </mxGeometry>
        </mxCell>
        <mxCell id="b8Xn-FrnnSBAFmYbfaQa-151" style="edgeStyle=orthogonalEdgeStyle;rounded=0;orthogonalLoop=1;jettySize=auto;html=1;exitX=0.5;exitY=0;exitDx=0;exitDy=0;entryX=0.25;entryY=1;entryDx=0;entryDy=0;endArrow=none;endFill=0;" edge="1" parent="1" source="b8Xn-FrnnSBAFmYbfaQa-139" target="b8Xn-FrnnSBAFmYbfaQa-108">
          <mxGeometry relative="1" as="geometry" />
        </mxCell>
        <mxCell id="b8Xn-FrnnSBAFmYbfaQa-139" value="" style="ellipse;whiteSpace=wrap;html=1;aspect=fixed;" vertex="1" parent="1">
          <mxGeometry x="413" y="525" width="10" height="10" as="geometry" />
        </mxCell>
        <mxCell id="b8Xn-FrnnSBAFmYbfaQa-140" value="indirizzo" style="text;html=1;align=center;verticalAlign=middle;resizable=0;points=[];autosize=1;strokeColor=none;fillColor=none;container=0;" vertex="1" parent="1">
          <mxGeometry x="353.00333333333333" y="510" width="70" height="30" as="geometry" />
        </mxCell>
        <mxCell id="b8Xn-FrnnSBAFmYbfaQa-141" value="" style="ellipse;whiteSpace=wrap;html=1;aspect=fixed;" vertex="1" parent="1">
          <mxGeometry x="388.5" y="565" width="10" height="10" as="geometry" />
        </mxCell>
        <mxCell id="b8Xn-FrnnSBAFmYbfaQa-142" value="" style="ellipse;whiteSpace=wrap;html=1;aspect=fixed;" vertex="1" parent="1">
          <mxGeometry x="423" y="565" width="10" height="10" as="geometry" />
        </mxCell>
        <mxCell id="b8Xn-FrnnSBAFmYbfaQa-143" value="" style="endArrow=none;html=1;rounded=0;exitX=0.5;exitY=0;exitDx=0;exitDy=0;entryX=0;entryY=1;entryDx=0;entryDy=0;" edge="1" parent="1" source="b8Xn-FrnnSBAFmYbfaQa-141" target="b8Xn-FrnnSBAFmYbfaQa-139">
          <mxGeometry width="50" height="50" relative="1" as="geometry">
            <mxPoint x="408.5" y="435" as="sourcePoint" />
            <mxPoint x="458.5" y="385" as="targetPoint" />
          </mxGeometry>
        </mxCell>
        <mxCell id="b8Xn-FrnnSBAFmYbfaQa-144" value="" style="endArrow=none;html=1;rounded=0;exitX=0.5;exitY=0;exitDx=0;exitDy=0;entryX=0.5;entryY=1;entryDx=0;entryDy=0;" edge="1" parent="1" source="b8Xn-FrnnSBAFmYbfaQa-142" target="b8Xn-FrnnSBAFmYbfaQa-139">
          <mxGeometry width="50" height="50" relative="1" as="geometry">
            <mxPoint x="403.5" y="575" as="sourcePoint" />
            <mxPoint x="424.5" y="544" as="targetPoint" />
          </mxGeometry>
        </mxCell>
        <mxCell id="b8Xn-FrnnSBAFmYbfaQa-145" value="via" style="text;html=1;align=center;verticalAlign=middle;resizable=0;points=[];autosize=1;strokeColor=none;fillColor=none;container=0;" vertex="1" parent="1">
          <mxGeometry x="345.50333333333333" y="565" width="40" height="30" as="geometry" />
        </mxCell>
        <mxCell id="b8Xn-FrnnSBAFmYbfaQa-146" value="civico" style="text;html=1;align=center;verticalAlign=middle;resizable=0;points=[];autosize=1;strokeColor=none;fillColor=none;container=0;" vertex="1" parent="1">
          <mxGeometry x="408.00333333333333" y="565" width="50" height="30" as="geometry" />
        </mxCell>
        <mxCell id="b8Xn-FrnnSBAFmYbfaQa-147" value="" style="ellipse;whiteSpace=wrap;html=1;aspect=fixed;" vertex="1" parent="1">
          <mxGeometry x="458" y="565" width="10" height="10" as="geometry" />
        </mxCell>
        <mxCell id="b8Xn-FrnnSBAFmYbfaQa-148" value="CAP" style="text;html=1;align=center;verticalAlign=middle;resizable=0;points=[];autosize=1;strokeColor=none;fillColor=none;container=0;" vertex="1" parent="1">
          <mxGeometry x="458.00333333333333" y="555" width="50" height="30" as="geometry" />
        </mxCell>
        <mxCell id="b8Xn-FrnnSBAFmYbfaQa-149" value="" style="endArrow=none;html=1;rounded=0;entryX=1;entryY=1;entryDx=0;entryDy=0;" edge="1" parent="1" target="b8Xn-FrnnSBAFmYbfaQa-139">
          <mxGeometry width="50" height="50" relative="1" as="geometry">
            <mxPoint x="460.5" y="564" as="sourcePoint" />
            <mxPoint x="430.5" y="529" as="targetPoint" />
          </mxGeometry>
        </mxCell>
        <mxCell id="b8Xn-FrnnSBAFmYbfaQa-153" value="" style="ellipse;whiteSpace=wrap;html=1;aspect=fixed;" vertex="1" parent="1">
          <mxGeometry x="353" y="490" width="10" height="10" as="geometry" />
        </mxCell>
        <mxCell id="b8Xn-FrnnSBAFmYbfaQa-154" value="stato" style="text;html=1;align=center;verticalAlign=middle;resizable=0;points=[];autosize=1;strokeColor=none;fillColor=none;container=0;" vertex="1" parent="1">
          <mxGeometry x="303.00333333333333" y="480" width="50" height="30" as="geometry" />
        </mxCell>
        <mxCell id="b8Xn-FrnnSBAFmYbfaQa-158" value="ID" style="text;html=1;align=center;verticalAlign=middle;resizable=0;points=[];autosize=1;strokeColor=none;fillColor=none;container=0;" vertex="1" parent="1">
          <mxGeometry x="313.00333333333333" y="445" width="40" height="30" as="geometry" />
        </mxCell>
        <mxCell id="b8Xn-FrnnSBAFmYbfaQa-159" value="" style="shape=waypoint;sketch=0;size=6;pointerEvents=1;points=[];fillColor=none;resizable=1;rotatable=1;perimeter=centerPerimeter;snapToPoint=1;perimeterSpacing=0;strokeWidth=3;movable=1;deletable=1;editable=1;locked=0;connectable=1;container=0;" vertex="1" parent="1">
          <mxGeometry x="345.5" y="450" width="20" height="20" as="geometry" />
        </mxCell>
        <mxCell id="b8Xn-FrnnSBAFmYbfaQa-161" style="edgeStyle=orthogonalEdgeStyle;rounded=0;orthogonalLoop=1;jettySize=auto;html=1;exitX=0;exitY=0;exitDx=0;exitDy=0;entryX=0.933;entryY=0.533;entryDx=0;entryDy=0;entryPerimeter=0;endArrow=none;endFill=0;" edge="1" parent="1" source="b8Xn-FrnnSBAFmYbfaQa-108" target="b8Xn-FrnnSBAFmYbfaQa-159">
          <mxGeometry relative="1" as="geometry">
            <Array as="points">
              <mxPoint x="375.5" y="460" />
              <mxPoint x="375.5" y="460" />
            </Array>
          </mxGeometry>
        </mxCell>
        <mxCell id="b8Xn-FrnnSBAFmYbfaQa-167" style="edgeStyle=orthogonalEdgeStyle;rounded=0;orthogonalLoop=1;jettySize=auto;html=1;exitX=0;exitY=0.5;exitDx=0;exitDy=0;entryX=1;entryY=0.5;entryDx=0;entryDy=0;endArrow=none;endFill=0;" edge="1" parent="1" source="b8Xn-FrnnSBAFmYbfaQa-164" target="b8Xn-FrnnSBAFmYbfaQa-108">
          <mxGeometry relative="1" as="geometry" />
        </mxCell>
        <mxCell id="b8Xn-FrnnSBAFmYbfaQa-169" style="edgeStyle=orthogonalEdgeStyle;rounded=0;orthogonalLoop=1;jettySize=auto;html=1;exitX=1;exitY=0.5;exitDx=0;exitDy=0;entryX=0;entryY=0.5;entryDx=0;entryDy=0;endArrow=none;endFill=0;" edge="1" parent="1" source="b8Xn-FrnnSBAFmYbfaQa-164" target="b8Xn-FrnnSBAFmYbfaQa-109">
          <mxGeometry relative="1" as="geometry" />
        </mxCell>
        <mxCell id="b8Xn-FrnnSBAFmYbfaQa-164" value="scegliere" style="rhombus;whiteSpace=wrap;html=1;" vertex="1" parent="1">
          <mxGeometry x="566.5" y="440" width="80" height="80" as="geometry" />
        </mxCell>
        <mxCell id="b8Xn-FrnnSBAFmYbfaQa-166" value="" style="group" vertex="1" connectable="0" parent="1">
          <mxGeometry x="367.5" y="424" width="118" height="56" as="geometry" />
        </mxCell>
        <mxCell id="b8Xn-FrnnSBAFmYbfaQa-162" value="" style="shape=partialRectangle;whiteSpace=wrap;html=1;bottom=0;right=0;fillColor=none;" vertex="1" parent="b8Xn-FrnnSBAFmYbfaQa-166">
          <mxGeometry x="9.076923076923077" width="108.92307692307693" height="48" as="geometry" />
        </mxCell>
        <mxCell id="b8Xn-FrnnSBAFmYbfaQa-163" value="" style="shape=waypoint;sketch=0;size=6;pointerEvents=1;points=[];fillColor=none;resizable=1;rotatable=1;perimeter=centerPerimeter;snapToPoint=1;perimeterSpacing=0;strokeWidth=3;movable=1;deletable=1;editable=1;locked=0;connectable=1;container=0;" vertex="1" parent="b8Xn-FrnnSBAFmYbfaQa-166">
          <mxGeometry y="40" width="18.153846153846153" height="16" as="geometry" />
        </mxCell>
        <mxCell id="b8Xn-FrnnSBAFmYbfaQa-170" value="" style="ellipse;whiteSpace=wrap;html=1;aspect=fixed;" vertex="1" parent="1">
          <mxGeometry x="762.5" y="521" width="10" height="10" as="geometry" />
        </mxCell>
        <mxCell id="b8Xn-FrnnSBAFmYbfaQa-171" value="" style="ellipse;whiteSpace=wrap;html=1;aspect=fixed;" vertex="1" parent="1">
          <mxGeometry x="826.5" y="521" width="10" height="10" as="geometry" />
        </mxCell>
        <mxCell id="b8Xn-FrnnSBAFmYbfaQa-172" value="email" style="text;html=1;align=center;verticalAlign=middle;resizable=0;points=[];autosize=1;strokeColor=none;fillColor=none;container=0;" vertex="1" parent="1">
          <mxGeometry x="766.5033333333333" y="516" width="50" height="30" as="geometry" />
        </mxCell>
        <mxCell id="b8Xn-FrnnSBAFmYbfaQa-173" value="password" style="text;html=1;align=center;verticalAlign=middle;resizable=0;points=[];autosize=1;strokeColor=none;fillColor=none;container=0;" vertex="1" parent="1">
          <mxGeometry x="832.5033333333333" y="516" width="70" height="30" as="geometry" />
        </mxCell>
        <mxCell id="b8Xn-FrnnSBAFmYbfaQa-176" style="edgeStyle=orthogonalEdgeStyle;rounded=0;orthogonalLoop=1;jettySize=auto;html=1;exitX=0.5;exitY=0;exitDx=0;exitDy=0;entryX=0.414;entryY=1.021;entryDx=0;entryDy=0;entryPerimeter=0;endArrow=none;endFill=0;" edge="1" parent="1" source="b8Xn-FrnnSBAFmYbfaQa-170" target="b8Xn-FrnnSBAFmYbfaQa-109">
          <mxGeometry relative="1" as="geometry" />
        </mxCell>
        <mxCell id="b8Xn-FrnnSBAFmYbfaQa-177" value="&lt;font style=&quot;font-size: 8px;&quot;&gt;(1,N)&lt;/font&gt;" style="text;html=1;align=center;verticalAlign=middle;resizable=0;points=[];autosize=1;strokeColor=none;fillColor=none;" vertex="1" parent="1">
          <mxGeometry x="440.5" y="373" width="40" height="30" as="geometry" />
        </mxCell>
        <mxCell id="b8Xn-FrnnSBAFmYbfaQa-178" value="&lt;font style=&quot;font-size: 8px;&quot;&gt;(1,N)&lt;/font&gt;" style="text;html=1;align=center;verticalAlign=middle;resizable=0;points=[];autosize=1;strokeColor=none;fillColor=none;" vertex="1" parent="1">
          <mxGeometry x="440.5" y="290" width="40" height="30" as="geometry" />
        </mxCell>
        <mxCell id="b8Xn-FrnnSBAFmYbfaQa-179" value="&lt;font style=&quot;font-size: 8px;&quot;&gt;(1,N)&lt;/font&gt;" style="text;html=1;align=center;verticalAlign=middle;resizable=0;points=[];autosize=1;strokeColor=none;fillColor=none;" vertex="1" parent="1">
          <mxGeometry x="635.5" y="450" width="40" height="30" as="geometry" />
        </mxCell>
        <mxCell id="b8Xn-FrnnSBAFmYbfaQa-180" value="&lt;font style=&quot;font-size: 8px;&quot;&gt;(1,1)&lt;/font&gt;" style="text;html=1;align=center;verticalAlign=middle;resizable=0;points=[];autosize=1;strokeColor=none;fillColor=none;" vertex="1" parent="1">
          <mxGeometry x="540.5" y="450" width="40" height="30" as="geometry" />
        </mxCell>
        <mxCell id="b8Xn-FrnnSBAFmYbfaQa-181" value="" style="ellipse;whiteSpace=wrap;html=1;aspect=fixed;dashed=1;" vertex="1" parent="1">
          <mxGeometry x="472.5" y="263" width="10" height="10" as="geometry" />
        </mxCell>
        <mxCell id="b8Xn-FrnnSBAFmYbfaQa-183" value="numAcquisti" style="text;html=1;align=center;verticalAlign=middle;resizable=0;points=[];autosize=1;strokeColor=none;fillColor=none;container=0;" vertex="1" parent="1">
          <mxGeometry x="472.50333333333333" y="263" width="90" height="30" as="geometry" />
        </mxCell>
        <mxCell id="b8Xn-FrnnSBAFmYbfaQa-187" value="" style="ellipse;whiteSpace=wrap;html=1;aspect=fixed;" vertex="1" parent="1">
          <mxGeometry x="403" y="30" width="10" height="10" as="geometry" />
        </mxCell>
        <mxCell id="b8Xn-FrnnSBAFmYbfaQa-188" value="imbottitura" style="text;html=1;align=center;verticalAlign=middle;resizable=0;points=[];autosize=1;strokeColor=none;fillColor=none;container=0;" vertex="1" parent="1">
          <mxGeometry x="323.00333333333333" y="20" width="80" height="30" as="geometry" />
        </mxCell>
        <mxCell id="b8Xn-FrnnSBAFmYbfaQa-190" value="prezzo" style="text;html=1;align=center;verticalAlign=middle;resizable=0;points=[];autosize=1;strokeColor=none;fillColor=none;container=0;" vertex="1" parent="1">
          <mxGeometry x="490.50333333333333" y="320" width="60" height="30" as="geometry" />
        </mxCell>
        <mxCell id="b8Xn-FrnnSBAFmYbfaQa-191" value="" style="ellipse;whiteSpace=wrap;html=1;aspect=fixed;" vertex="1" parent="1">
          <mxGeometry x="490.5" y="335" width="10" height="10" as="geometry" />
        </mxCell>
        <mxCell id="b8Xn-FrnnSBAFmYbfaQa-193" value="" style="endArrow=none;html=1;rounded=0;exitX=0.825;exitY=0.348;exitDx=0;exitDy=0;exitPerimeter=0;entryX=0;entryY=0.5;entryDx=0;entryDy=0;" edge="1" parent="1" source="b8Xn-FrnnSBAFmYbfaQa-106" target="b8Xn-FrnnSBAFmYbfaQa-191">
          <mxGeometry width="50" height="50" relative="1" as="geometry">
            <mxPoint x="400" y="270" as="sourcePoint" />
            <mxPoint x="450" y="220" as="targetPoint" />
          </mxGeometry>
        </mxCell>
      </root>
    </mxGraphModel>
  </diagram>
</mxfile>
